<mxfile host="65bd71144e">
    <diagram id="gyelMsLiqXuM2iEByt4A" name="第1頁">
        <mxGraphModel dx="182" dy="222" grid="1" gridSize="10" guides="1" tooltips="1" connect="1" arrows="1" fold="1" page="1" pageScale="1" pageWidth="827" pageHeight="1169" math="0" shadow="0">
            <root>
                <mxCell id="0"/>
                <mxCell id="1" parent="0"/>
                <mxCell id="2" value="sequenceDiagram&#xa;    participant 用户&#xa;    participant MainWindow&#xa;    participant SerialManager&#xa;    participant QThread&#xa;    participant SerialPort&#xa;    &#xa;    用户-&gt;&gt;MainWindow: 启动应用程序&#xa;    MainWindow-&gt;&gt;MainWindow: 初始化UI组件&#xa;    MainWindow-&gt;&gt;SerialManager: 创建实例&#xa;    MainWindow-&gt;&gt;SerialManager: 连接信号/槽&#xa;    SerialManager-&gt;&gt;QThread: 创建worker_thread&#xa;    SerialManager-&gt;&gt;QThread: moveToThread(worker_thread)&#xa;    &#xa;    用户-&gt;&gt;MainWindow: 点击&quot;启动串口&quot;&#xa;    MainWindow-&gt;&gt;SerialManager: 设置端口参数(port_name, baudrate)&#xa;    MainWindow-&gt;&gt;SerialManager: 调用start()&#xa;    SerialManager-&gt;&gt;SerialPort: 初始化串口连接&#xa;    SerialManager-&gt;&gt;QThread: 启动worker_thread&#xa;    QThread-&gt;&gt;SerialManager: 调用start_reading()&#xa;    &#xa;    loop 数据读取循环&#xa;        SerialManager-&gt;&gt;SerialPort: 读取数据(readline)&#xa;        SerialPort--&gt;&gt;SerialManager: 返回原始数据&#xa;        SerialManager-&gt;&gt;SerialManager: 处理数据(process_data)&#xa;        SerialManager-&gt;&gt;MainWindow: 发射data_received信号&#xa;        MainWindow-&gt;&gt;MainWindow: 更新UI显示数据&#xa;    end&#xa;    &#xa;    用户-&gt;&gt;MainWindow: 点击&quot;停止串口&quot;&#xa;    MainWindow-&gt;&gt;SerialManager: 调用stop()&#xa;    SerialManager-&gt;&gt;SerialPort: 关闭串口&#xa;    SerialManager-&gt;&gt;QThread: 停止线程&#xa;    QThread--&gt;&gt;SerialManager: 线程退出" style="shadow=0;dashed=0;align=left;strokeWidth=1;shape=mxgraph.mermaid.abstract.mermaid;labelBackgroundColor=#ffffff;noLabel=1;theme=default;" vertex="1" parent="1">
                    <mxGeometry x="130" y="300" width="400" height="300" as="geometry"/>
                </mxCell>
            </root>
        </mxGraphModel>
    </diagram>
</mxfile>